 <svg version="1.0" xmlns="http://www.w3.org/2000/svg" width="700.000000pt" height="700.000000pt" viewBox="0 0 700.000000 700.000000" preserveAspectRatio="xMidYMid meet">
<metadata>
Created by potrace 1.12, written by Peter Selinger 2001-2015
</metadata>
<g transform="translate(0.000000,700.000000) scale(0.100000,-0.100000)" fill="#000000" stroke="none">
<path d="M5114 3806 c-216 -41 -357 -111 -498 -245 -191 -183 -280 -444 -246
-725 27 -230 89 -369 231 -520 138 -146 307 -248 664 -401 287 -123 401 -186
460 -257 101 -119 91 -304 -22 -409 -158 -145 -491 -155 -712 -21 -94 57 -143
103 -221 207 l-72 96 -32 -19 c-17 -10 -134 -78 -261 -152 -126 -73 -231 -134
-233 -136 -7 -5 49 -103 94 -164 248 -338 619 -509 1106 -510 296 0 540 68
734 206 79 56 189 174 237 255 87 148 130 370 109 567 -25 227 -91 378 -231
526 -142 149 -335 264 -721 431 -396 171 -480 245 -480 426 0 91 16 134 71
194 72 78 199 111 331 85 119 -23 206 -85 283 -201 44 -66 48 -69 69 -56 230
144 486 312 486 318 0 4 -23 42 -51 84 -141 210 -321 340 -555 401 -85 23
-125 27 -284 30 -127 2 -207 -1 -256 -10z"></path>
<path d="M3155 3778 c-3 -7 -6 -548 -7 -1203 l-3 -1190 -24 -59 c-29 -73 -77
-127 -139 -157 -41 -21 -62 -24 -167 -24 -111 0 -124 2 -177 28 -68 33 -151
119 -209 217 -23 39 -45 73 -50 76 -5 3 -96 -47 -202 -112 -105 -64 -222 -136
-259 -158 -37 -23 -68 -45 -68 -50 0 -23 78 -152 136 -224 155 -194 393 -324
658 -361 111 -16 295 -13 406 4 423 69 676 324 745 749 13 76 15 283 15 1284
l0 1192 -325 0 c-251 0 -327 -3 -330 -12z"></path>
</g>
</svg>